<svg version="1.0" xmlns="http://www.w3.org/2000/svg"
 width="64.000000pt" height="64.000000pt" viewBox="0 0 64.000000 64.000000"
 preserveAspectRatio="xMidYMid meet">

<g transform="translate(0.000000,64.000000) scale(0.100000,-0.100000)"
fill="#ffff" stroke="none">
<path d="M43 578 c212 -300 207 -292 193 -308 -7 -8 -63 -72 -125 -142 -108
-122 -111 -128 -84 -128 25 0 45 18 133 118 57 64 108 117 114 117 5 0 46 -52
91 -115 l81 -115 98 -3 98 -3 -34 48 c-19 26 -68 95 -108 153 -41 58 -84 119
-97 136 l-23 31 115 131 c63 72 115 134 115 137 0 3 -11 5 -23 5 -18 0 -51
-30 -127 -116 -56 -64 -106 -112 -111 -107 -4 4 -41 55 -81 113 l-74 105 -98
3 -98 3 45 -63z m272 -190 c83 -117 172 -242 198 -280 l48 -68 -43 0 -43 0
-190 267 c-104 146 -194 272 -198 280 -6 10 2 13 35 13 l43 -1 150 -211z"/>
</g>
</svg>
